<svg version="1" xmlns="http://www.w3.org/2000/svg" width="933.333" height="933.333" viewBox="0 0 700.000000 700.000000"><path d="M329.8.5c-.2.1-4.1.5-8.8.9-10 .7-22.5 2.2-29.5 3.6-2.7.5-6.1 1.2-7.5 1.4-43.1 7.9-90.8 27.3-127.5 51.9-6.9 4.6-29.7 21.7-30.5 22.8-.3.3-2.5 2.3-5 4.4-8.5 7-21.6 20.1-36.1 36.1-20.9 23-45.2 62.5-58.5 95.2-6.2 15.1-14.6 41.1-16.9 52-.2.9-.8 3.7-1.4 6.2-1.1 4.9-1.3 6.3-3.5 19.5-3.4 20.4-4 30.2-4 57 0 23.3 1.1 37.8 3.9 54.5.6 3.2 2.4 12.9 2.9 15.5 4.8 24.4 15.6 56.1 27.3 80.2 44.8 92.8 128 161.2 227 186.8 7.2 1.9 14.2 3.6 15.5 3.9 1.3.2 5 .9 8.3 1.5 3.3.6 7.1 1.3 8.5 1.6 1.4.3 5.2.8 8.5 1.1 3.3.3 6.3.8 6.6.9 1.5 1 22.7 2 40.9 2 18.8 0 34.1-.8 43-2.1 14.4-2.1 29.5-4.8 34.5-6.1 3.3-.8 6.7-1.6 7.5-1.8 10.9-2.2 38.8-11.7 54.9-18.7 12.1-5.3 30.8-14.8 35.3-17.9 1.4-1.1 2.9-1.9 3.3-1.9 2.4 0 38.3-25.7 49.5-35.5 11.9-10.4 29.4-27.9 36.5-36.5 2.1-2.5 4.1-4.7 4.4-5 .4-.3 4.5-5.5 9.1-11.5 33.2-43.6 54.7-91.5 65.4-145.6 1.4-7 2.8-15.5 3.2-19 .3-3.5.8-6.7 1-7 .9-1.7 1.9-21.4 1.8-39.9 0-18.8-.6-33.1-1.9-42-.3-1.9-.7-5.6-1-8.1-.3-2.5-.7-5.4-.9-6.5-.2-1-1.1-6-2.1-10.9-8.5-45.6-27.6-91.5-54.3-130.5-5.6-8.2-19.4-26.5-21.1-28-.3-.3-3.5-3.8-7-7.8C563.2 62.5 494.7 22.8 422.3 7.6c-9.9-2.1-24.4-4.4-39.3-6.1-5.5-.7-52.6-1.6-53.2-1zM388 202.4c1.3.3 4.2.8 6.5 1.1 11.3 1.7 26.1 6.6 37.9 12.8 20.9 10.8 39.5 29.4 52.6 52.6 4.3 7.5 4.5 8.1 3.1 8.1-.7 0-10.5 4.5-39.6 18.5-13.1 6.3-20.4 9.5-21.5 9.5-.5 0-1.1-.9-1.5-1.9-.9-2.9-7.9-13.2-11.8-17.2-12.4-13.2-30-20.8-48.1-20.7-26.7 0-51.6 14.1-64.7 36.5-9.1 15.5-12 27.5-11.5 46.8.7 25.2 8.5 42.9 25.7 58.8 12.6 11.8 29.1 18.4 47.4 19.2 12.4.5 21.1-1.2 32-6.6 12.6-6.1 21.5-14.4 28.6-26.5l4.2-7.1 14.6 7c8 3.8 20.2 9.6 27.1 12.9 6.9 3.3 14.2 6.7 16.3 7.5 2 .8 3.7 1.7 3.7 2 0 1.4-9.2 16-15 23.8-16 21.3-36.7 36.3-61.6 44.4-9.5 3.1-11.4 3.5-25.9 5.6-8.8 1.2-33.1 1.3-40.7.1-2.1-.3-5.5-.8-7.5-1.1-15.2-2.2-37.6-9.7-49.6-16.7-2.6-1.5-5-2.8-5.3-2.8-1.2 0-16.6-11.3-21.5-15.8-25.1-22.8-39.6-50.3-45-85.7-1.7-11.3-1.5-34.1.5-46 3.4-21.3 10.3-39.5 21.3-56.2 7.1-10.9 16.5-21.3 26.3-29.4 28.6-23.5 63.4-35 104.5-34.4 8.8.2 17.1.5 18.5.9z"/></svg>